{"asset":{"version":"2.0","generator":"GLTFExporter"},"scenes":[{"nodes":[0],"name":"AuxScene"}],"scene":0,"nodes":[{"mesh":0}],"bufferViews":[{"buffer":0,"byteOffset":0,"byteLength":532572,"target":34962,"byteStride":12},{"buffer":0,"byteOffset":532572,"byteLength":532572,"target":34962,"byteStride":12},{"buffer":0,"byteOffset":1065144,"byteLength":561024,"target":34963}],"buffers":[{"byteLength":1626168,"uri":"data:application/octet-stream;base64,"}],"accessors":[{"bufferView":0,"componentType":5126,"count":44381,"max":[15577.8916015625,2901.550048828125,4001],"min":[77.8919448852539,1769.6290283203125,0.9999960660934448],"type":"VEC3"},{"bufferView":1,"componentType":5126,"count":44381,"max":[1,1,1],"min":[-1,-1,-1],"type":"VEC3"},{"bufferView":2,"componentType":5125,"count":140256,"max":[44380],"min":[0],"type":"SCALAR"}],"materials":[{"pbrMetallicRoughness":{"metallicFactor":0.5,"roughnessFactor":0.5}}],"meshes":[{"primitives":[{"mode":4,"attributes":{"POSITION":0,"NORMAL":1},"indices":2,"material":0}]}]}